<?xml version="1.0" encoding="utf-8"?>
<!-- Generator: Adobe Illustrator 16.0.0, SVG Export Plug-In . SVG Version: 6.00 Build 0)  -->
<!DOCTYPE svg PUBLIC "-//W3C//DTD SVG 1.1//EN" "http://www.w3.org/Graphics/SVG/1.1/DTD/svg11.dtd">
<svg version="1.1" id="Vrstva_1" xmlns="http://www.w3.org/2000/svg" xmlns:xlink="http://www.w3.org/1999/xlink" x="0px" y="0px"
	 width="841.891px" height="179.333px" viewBox="0 0 841.891 179.333" enable-background="new 0 0 841.891 179.333"
	 xml:space="preserve">
<g>
	<g>
		<path fill="#2E2E2E" d="M265.855,121.17V36.113h17.201v34.875h12.333V36.113h17.295v85.058h-17.295V83.227h-12.333v37.943H265.855
			L265.855,121.17z"/>
		<path fill="#2E2E2E" d="M318.166,121.17l18.382-85.059h15.216l18.334,85.059h-16.964l-3.496-18.195h-11.105l-3.307,18.195H318.166
			z M339.713,92.392h8.79l-4.299-31.565L339.713,92.392z"/>
		<path fill="#2E2E2E" d="M372.649,96.833l17.437-3.354c0,1.735,0.031,3.261,0.095,4.586c0.063,1.321,0.228,2.763,0.495,4.324
			c0.268,1.558,0.632,2.833,1.088,3.827c0.457,0.988,1.103,1.826,1.938,2.506c0.834,0.675,1.819,1.015,2.954,1.015
			c3.402,0,5.103-2.175,5.103-6.524c0-5.95-3.354-11.873-10.064-17.764l-5.339-4.54c-1.701-1.416-3.058-2.597-4.064-3.541
			c-1.008-0.944-2.196-2.22-3.566-3.827c-1.371-1.607-2.442-3.16-3.214-4.655c-0.771-1.495-1.434-3.301-1.984-5.41
			c-0.552-2.112-0.828-4.349-0.828-6.709c0-6.901,2.189-12.359,6.568-16.377c4.379-4.013,10.19-6.022,17.437-6.022
			c6.018,0,11.136,2.141,15.357,6.424c4.222,4.287,6.332,9.452,6.332,15.503l-0.047,0.613c0,0.41,0,0.883,0,1.417l-17.769,2.456
			c0-0.343,0.024-0.886,0.07-1.627c0.048-0.742,0.072-1.347,0.072-1.819c0-1.135-0.08-2.224-0.236-3.263
			c-0.158-1.04-0.418-2.08-0.779-3.119c-0.363-1.04-0.922-1.864-1.678-2.481c-0.756-0.613-1.67-0.919-2.74-0.919
			c-1.891,0-3.309,0.741-4.253,2.22c-0.945,1.482-1.417,3.231-1.417,5.248c0,1.765,0.275,3.417,0.826,4.958
			c0.551,1.545,1.386,2.986,2.505,4.324c1.117,1.342,2.149,2.452,3.095,3.334c0.945,0.882,2.204,1.959,3.781,3.235
			c1.575,1.276,2.693,2.216,3.354,2.812c2.425,2.142,4.472,4.151,6.143,6.026c1.67,1.873,3.244,3.993,4.726,6.354
			c1.48,2.361,2.592,4.917,3.331,7.654c0.74,2.742,1.111,5.703,1.111,8.885c0,5.956-2.126,10.831-6.379,14.625
			c-4.253,3.798-9.42,5.695-15.5,5.695c-3.939,0-7.437-0.727-10.49-2.176c-3.057-1.449-5.521-3.416-7.396-5.906
			c-1.875-2.488-3.316-5.242-4.325-8.271C373.389,103.542,372.806,100.299,372.649,96.833z"/>
		<path fill="#2E2E2E" d="M425.339,121.17V36.113h35.486v11.813h-18.286v23.153h12.947v12.098h-12.947v26.181h18.286v11.813H425.339
			L425.339,121.17z"/>
		<path fill="#2E2E2E" d="M480.153,121.129V95.083l-18.336-57.889h7.511c0.65,2.342,1.594,5.641,2.827,9.898
			c1.236,4.262,2.506,8.584,3.806,12.975c1.301,4.391,2.562,8.609,3.778,12.657c1.218,4.045,2.218,7.371,3.001,9.974l1.17,3.853
			c2.079-7.64,4.485-16.087,7.218-25.338c2.731-9.251,5.041-17.257,6.926-24.019h7.267l-17.752,57.889v26.047H480.153
			L480.153,121.129z"/>
		<path fill="#2E2E2E" d="M510.782,96.793V61.628c0-2.959,0.221-5.674,0.659-8.145c0.438-2.47,1.178-4.805,2.22-6.997
			c1.037-2.198,2.354-4.049,3.949-5.561c1.595-1.514,3.625-2.707,6.099-3.583c2.47-0.879,5.299-1.321,8.483-1.321
			c3.188,0,6.014,0.442,8.486,1.321c2.471,0.876,4.504,2.069,6.097,3.583c1.593,1.512,2.91,3.363,3.949,5.561
			c1.042,2.192,1.781,4.527,2.223,6.997c0.438,2.471,0.658,5.186,0.658,8.145v35.166c0,17.104-7.141,25.652-21.413,25.652
			C517.92,122.447,510.782,113.897,510.782,96.793z M546.189,98.452V59.97c0-11.995-4.666-17.999-13.997-17.999
			c-9.332,0-13.996,6.004-13.996,17.999v38.481c0,12.028,4.664,18.045,13.996,18.045C541.523,116.497,546.189,110.48,546.189,98.452
			z"/>
		<path fill="#2E2E2E" d="M565.015,100.499V37.194h7.414v65.012c0,4.813,1.089,8.396,3.268,10.756
			c2.178,2.354,5.854,3.535,11.021,3.535c4.877,0,8.354-1.188,10.438-3.563c2.081-2.371,3.119-5.95,3.119-10.729V37.194h7.366
			v63.305c0,14.629-6.973,21.948-20.923,21.948c-3.348,0-6.3-0.391-8.853-1.173c-2.554-0.781-4.632-1.828-6.242-3.146
			c-1.607-1.316-2.919-2.924-3.926-4.824c-1.009-1.903-1.706-3.889-2.098-5.952C565.212,105.288,565.015,103.004,565.015,100.499z"
			/>
		<path fill="#2E2E2E" d="M621.49,121.129V37.194h22.389c2.828,0,5.314,0.393,7.462,1.17c2.146,0.783,3.879,1.813,5.192,3.1
			c1.317,1.282,2.383,2.876,3.193,4.78c0.812,1.901,1.375,3.868,1.685,5.897c0.309,2.032,0.463,4.283,0.463,6.755
			c0,10.699-3.9,17.475-11.703,20.338l12.974,41.894h-7.902L643,80.16h-14.096v40.969H621.49L621.49,121.129z M628.904,74.214
			h14.926c2.111,0,3.9-0.424,5.363-1.27c1.462-0.847,2.563-2.048,3.294-3.609c0.731-1.56,1.242-3.189,1.536-4.877
			c0.292-1.692,0.438-3.624,0.438-5.806c0-1.787-0.09-3.398-0.271-4.827c-0.175-1.431-0.502-2.829-0.972-4.193
			c-0.477-1.367-1.1-2.512-1.879-3.44c-0.778-0.928-1.808-1.663-3.073-2.22c-1.27-0.551-2.746-0.828-4.438-0.828h-14.926
			L628.904,74.214L628.904,74.214z"/>
		<path fill="#2E2E2E" d="M681.575,121.129L667.53,37.194h6.929l11.461,71.791l10.823-71.791h9.414l9.899,71.791l11.414-71.791
			h6.877l-13.951,83.936h-8.533l-10.484-74.133l-11.316,74.133H681.575L681.575,121.129z"/>
		<path fill="#2E2E2E" d="M741.028,96.793V61.628c0-2.959,0.222-5.674,0.659-8.145c0.44-2.47,1.178-4.805,2.219-6.997
			c1.04-2.198,2.357-4.049,3.952-5.561c1.592-1.514,3.624-2.707,6.097-3.583c2.471-0.879,5.298-1.321,8.484-1.321
			c3.188,0,6.015,0.442,8.484,1.321c2.473,0.876,4.505,2.069,6.1,3.583c1.592,1.512,2.909,3.363,3.949,5.561
			c1.04,2.192,1.781,4.527,2.221,6.997c0.438,2.471,0.658,5.186,0.658,8.145v35.166c0,17.104-7.139,25.652-21.412,25.652
			S741.028,113.897,741.028,96.793z M776.438,98.452V59.97c0-11.995-4.666-17.999-13.998-17.999s-13.997,6.004-13.997,17.999v38.481
			c0,12.028,4.665,18.045,13.997,18.045S776.438,110.48,776.438,98.452z"/>
		<path fill="#2E2E2E" d="M796.53,121.129V37.194h18.874c3.186,0,6.017,0.431,8.486,1.294c2.471,0.859,4.512,2.032,6.121,3.511
			s2.928,3.291,3.95,5.436c1.023,2.147,1.754,4.425,2.193,6.828c0.44,2.406,0.659,5.058,0.659,7.951v34.139
			c0,16.519-7.138,24.776-21.411,24.776H796.53L796.53,121.129z M803.944,115.179h11.46c9.332,0,13.997-5.726,13.997-17.168V60.554
			c0-11.605-4.665-17.41-13.997-17.41h-11.46V115.179z"/>
	</g>
	<g>
		<g>
			<path fill="#2E2E2E" d="M27.771,175.22c-2.049,0-4.1,0-6.147,0c-2.106-1.193-3.854-2.778-4.898-4.978
				c-0.902-1.899-2.394-3.646-4.022-4.347c-3.179-1.371-4.596-4.356-7.255-6.001c0.702-1.928,1.795-3.383,1.598-5.096
				c1.356-2.243,5.589-1.434,4.788-5.08c2.322-1.02,3.742,2.423,5.254,0.808c1.453-1.548,3.271-0.991,4.836-1.854
				c5.292-2.924,11.071-4.981,16.285-8.02c5.134-2.992,10.753-3.814,16.787-5.262c2.506-6.191,2.695-13.594,7.208-20.596
				c0-2.942,0-6.991,0-11.041c0-2.455-0.187-4.93,0.056-7.358c0.215-2.121-0.742-4.265,0.804-6.432
				c1.308-1.835-0.519-4.77,1.574-6.698c0.203-0.188,0.144-0.837,0.01-1.193c-2.476-6.671-0.803-13.582-1.124-20.37
				c-0.125-2.6-1.421-4.788-1.5-7.462c-0.111-3.87,1.679-7.362,1.402-11.218c4.123-3.933,7.595-8.712,13.477-10.295
				c0.5-7.913-2.629-15.153-1.234-22.639c1.25-1.931,2.5-3.858,3.751-5.793c5.244-1.313,5.271-1.375,13.497,1.93
				c1.003,0.402,1.891,0.39,2.5,0.489c1.688,1.788,3.187,3.374,4.923,5.213c-0.017,1.213-1.685,1.671-2.398,2.74
				c1.834,2.456,1.425,5.536,2.292,8.245c0.632,1.979-1.33,3.469-2.377,6.376c0,0.565,0,2.351,0,4.076
				c-4.505,1.01-5.097,1.344-8.599,4.827c0.378,2.332,0.378,2.332,3.688,6.685c-0.197-1.311,0.032-2.634,1.319-3.1
				c2.591-0.938,4.167-3.026,5.979-4.836c7.181-7.19,14.966-13.608,23.115-19.707c3.769-2.819,7.542-5.892,11.212-9.487
				c6.706,4.668,13.895,8.833,19.341,15.178c2.263,2.643,5.575,3.825,7.834,6.435c1.681,1.947,3.438,3.746,3.861,6.41
				c2.589,0.443,3.664,2.918,5.293,3.98c6.011,0.443,5.935,7.089,10.313,8.826c0.129,2.845,1.267,4.929,3.859,6.159
				c3.396,1.609,5.165,4.587,6.503,8.091c3.022,1.007,5.788,3.502,6.857,6.111c1.789,4.366,5.193,6.957,8.078,10.165
				c1.363,1.522,2.88,2.908,4.337,4.363c-0.519,2.271,2.019,3.867,1.365,6.199c1.354,1.405,2.65,2.719,4.588,3.579
				c3.783,1.672,5.722,5.09,6.484,10.03c5.88,5.599,10.584,12.058,14.379,19.226c0.444,0.836,0.214,1.551,0.38,2.303
				c0,2.051,0,4.101,0,6.154c-2.117,5.769-6.957,9.207-11.749,12.119c-6.563,3.994-12.318,8.913-18.375,13.52
				c-3.447,2.628-6.785,5.613-11.319,6.767c-1.862,0.474-4.056,1.409-4.83,3.468c-5.982-3.428-9.737-8.611-14.645-12.32
				c-5.868-4.447-10.792-9.771-15.828-14.981c-5.329-5.517-9.986-11.634-14.57-17.839c-4.067-5.507-8.192-11.014-12.411-16.432
				c-5.164-6.629-10.396-13.164-16.498-18.992c-1.97-1.88-2.933-4.705-4.318-5.644c-2.925-6.652-5.677-12.076-11.05-16.888
				c-0.603,2.309-2.129,3.411-2.167,5.523c-0.105,5.952,0.616,11.703,2.322,17.473c0.775,2.62,3.07,3.993,3.646,6.497
				c0.582,2.527,2.707,3.393,4.606,4.827c8.41,6.352,13.019,10.846,16.646,20.368c-0.824,1.425-1.2,3.428-2.77,4.687
				c-7.848,6.297-15.367,13.099-25.104,16.526c-1.121,2.072-2.373,4.107-1.562,6.912c2.448,3.162,6.186,4.008,10.276,4.147
				c0.58,1.118,1.193,2.3,1.808,3.478c0.512,1.414-2.375,1.517-0.948,3.14c-2.744,0.992-4.741,3.03-7.566,3.159
				c-2.34,0.107-4.085-1.154-5.687-2.572c-1.686-1.486-3.208-3.163-4.952-4.904c-3.185,0.532-6.547,2.959-9.829-0.231
				c-1.754-2.13-1.995-4.831-1.68-7.865c2.113-1.278,3.947-3.147,5.352-5.397c0.557,0.506,1.001,0.918,1.649,1.506
				c6.01-3.549,8.823-9.771,12.878-15.205c-4.189-2.021-6.444-6.004-10.366-8.829c-5.577,6.196-4.59,14.559-7.896,21.532
				c-1.623,1.814-4.229,2.105-6.577,2.783c-2.194,0.637-4.147,2.11-6.872,1.947c-3.067,5.061-9.089,5.057-13.924,7.227
				c-1.449,0.651-3.168,1.254-4.782,1.804c-2.74,0.938-5.336,2.456-8.36,2.034c-3.648-0.51-7.029,0.902-11.483,1.76
				c-0.188,0.34-0.88,1.611-1.575,2.883c-0.277-0.218-0.552-0.436-0.829-0.65c0,1.367,0,2.738,0,4.188
				c1.237,1.235,2.54,2.539,3.947,3.948c1.628,0.713,4.095-0.762,4.769,0.603c1.333,2.345,0.828,3.774,0.925,5.152
				c-0.438,0.432-0.871,0.87-1.507,1.505c-1.056,0.827-2.719-0.243-3.836,0.398C29.941,174.696,29.079,175.448,27.771,175.22z"/>
			<g>
				<path fill="#2E2E2E" d="M257.043,53.55c-0.52-2.804-1.371-5.405-2.552-7.799s-2.686-4.407-4.512-6.047
					c-1.828-1.636-4.088-2.92-6.782-3.852c-2.693-0.928-5.772-1.392-9.237-1.392c-16.443,0-24.667,10.048-24.667,30.145v8.692
					c0.56,0.571,1.125,1.158,1.699,1.798c0.805,0.898,1.722,1.789,2.693,2.733c0.472,0.46,0.945,0.919,1.413,1.385l2.353,2.349
					l-0.512,2.247c0.356,0.714,0.911,1.831,1.202,3.235c0.377,0.313,0.72,0.537,1.097,0.702c3.107,1.375,5.532,3.54,7.256,6.467
					V60.305c0-8.379,2.489-12.566,7.467-12.566c1.26,0,2.339,0.314,3.237,0.945c0.897,0.629,1.575,1.392,2.031,2.29
					c0.457,0.899,0.818,2.063,1.088,3.496c0.267,1.433,0.433,2.713,0.496,3.828c0.062,1.118,0.094,2.452,0.094,3.992v7.845h16.917
					v-7.323C257.822,59.439,257.562,56.354,257.043,53.55z"/>
				<path fill="#2E2E2E" d="M241,94.944c0,1.922-0.079,3.633-0.235,5.128c-0.158,1.495-0.457,3.023-0.898,4.581
					c-0.441,1.563-1.166,2.768-2.173,3.615c-0.41,0.35-0.871,0.605-1.36,0.811c2.428,3.301,4.651,6.836,6.643,10.598
					c0.274,0.52,0.458,1.011,0.602,1.482c2.738-1.082,4.977-2.502,6.709-4.267c1.748-1.777,3.189-3.96,4.323-6.545
					c1.135-2.58,1.938-5.243,2.41-7.985c0.472-2.742,0.739-5.732,0.803-8.979v-7.182H241V94.944z"/>
			</g>
		</g>
	</g>
</g>
</svg>
